<mxfile host="app.diagrams.net" modified="2023-04-17T09:06:26.687Z" agent="5.0 (Macintosh; Intel Mac OS X 10_15_7) AppleWebKit/537.36 (KHTML, like Gecko) Chrome/112.0.0.0 Safari/537.36" etag="_HIlAM88sJQ_1emIwF0r" version="20.8.0" type="github">
  <diagram id="C5RBs43oDa-KdzZeNtuy" name="Page-1">
    <mxGraphModel dx="758" dy="518" grid="1" gridSize="10" guides="1" tooltips="1" connect="1" arrows="1" fold="1" page="1" pageScale="1" pageWidth="827" pageHeight="1169" math="0" shadow="0">
      <root>
        <mxCell id="WIyWlLk6GJQsqaUBKTNV-0" />
        <mxCell id="WIyWlLk6GJQsqaUBKTNV-1" parent="WIyWlLk6GJQsqaUBKTNV-0" />
        <mxCell id="JxEY2v-Uu0OLQ1JV-tgB-2" style="edgeStyle=orthogonalEdgeStyle;rounded=0;orthogonalLoop=1;jettySize=auto;html=1;exitX=1;exitY=0.5;exitDx=0;exitDy=0;entryX=0;entryY=0.5;entryDx=0;entryDy=0;" edge="1" parent="WIyWlLk6GJQsqaUBKTNV-1" source="JxEY2v-Uu0OLQ1JV-tgB-0" target="JxEY2v-Uu0OLQ1JV-tgB-1">
          <mxGeometry relative="1" as="geometry" />
        </mxCell>
        <mxCell id="JxEY2v-Uu0OLQ1JV-tgB-0" value="数据上报" style="rounded=1;whiteSpace=wrap;html=1;" vertex="1" parent="WIyWlLk6GJQsqaUBKTNV-1">
          <mxGeometry x="50" y="90" width="120" height="60" as="geometry" />
        </mxCell>
        <mxCell id="JxEY2v-Uu0OLQ1JV-tgB-4" style="edgeStyle=orthogonalEdgeStyle;rounded=0;orthogonalLoop=1;jettySize=auto;html=1;exitX=1;exitY=0.5;exitDx=0;exitDy=0;" edge="1" parent="WIyWlLk6GJQsqaUBKTNV-1" source="JxEY2v-Uu0OLQ1JV-tgB-1" target="JxEY2v-Uu0OLQ1JV-tgB-3">
          <mxGeometry relative="1" as="geometry" />
        </mxCell>
        <mxCell id="JxEY2v-Uu0OLQ1JV-tgB-1" value="Kafka" style="rounded=1;whiteSpace=wrap;html=1;" vertex="1" parent="WIyWlLk6GJQsqaUBKTNV-1">
          <mxGeometry x="220" y="90" width="120" height="60" as="geometry" />
        </mxCell>
        <mxCell id="JxEY2v-Uu0OLQ1JV-tgB-7" style="edgeStyle=orthogonalEdgeStyle;rounded=0;orthogonalLoop=1;jettySize=auto;html=1;exitX=0.5;exitY=1;exitDx=0;exitDy=0;entryX=0.5;entryY=0;entryDx=0;entryDy=0;entryPerimeter=0;" edge="1" parent="WIyWlLk6GJQsqaUBKTNV-1" source="JxEY2v-Uu0OLQ1JV-tgB-3" target="JxEY2v-Uu0OLQ1JV-tgB-5">
          <mxGeometry relative="1" as="geometry" />
        </mxCell>
        <mxCell id="JxEY2v-Uu0OLQ1JV-tgB-3" value="Flink" style="rounded=1;whiteSpace=wrap;html=1;" vertex="1" parent="WIyWlLk6GJQsqaUBKTNV-1">
          <mxGeometry x="380" y="90" width="120" height="60" as="geometry" />
        </mxCell>
        <mxCell id="JxEY2v-Uu0OLQ1JV-tgB-9" style="edgeStyle=orthogonalEdgeStyle;rounded=0;orthogonalLoop=1;jettySize=auto;html=1;exitX=1;exitY=0.5;exitDx=0;exitDy=0;exitPerimeter=0;" edge="1" parent="WIyWlLk6GJQsqaUBKTNV-1" source="JxEY2v-Uu0OLQ1JV-tgB-5" target="JxEY2v-Uu0OLQ1JV-tgB-8">
          <mxGeometry relative="1" as="geometry" />
        </mxCell>
        <mxCell id="JxEY2v-Uu0OLQ1JV-tgB-5" value="starRocks" style="shape=cylinder3;whiteSpace=wrap;html=1;boundedLbl=1;backgroundOutline=1;size=15;" vertex="1" parent="WIyWlLk6GJQsqaUBKTNV-1">
          <mxGeometry x="410" y="220" width="60" height="80" as="geometry" />
        </mxCell>
        <mxCell id="JxEY2v-Uu0OLQ1JV-tgB-8" value="告警" style="rounded=1;whiteSpace=wrap;html=1;" vertex="1" parent="WIyWlLk6GJQsqaUBKTNV-1">
          <mxGeometry x="550" y="90" width="120" height="60" as="geometry" />
        </mxCell>
      </root>
    </mxGraphModel>
  </diagram>
</mxfile>
